# xmcd
#
# Track frame offsets:
#	150
#	13697
#	23392
#	34292
#	44872
#	62437
#	74077
#	84502
#	94365
#	104740
#	113492
#	133330
#
# Disc length: 1915 seconds
#
# Revision: 0
# Processed by: cddbd v1.5.2PL0 Copyright (c) Steve Scherf et al.
# Submitted via: dBpowerAMP V4.0
#
DISCID=aa07790c
DTITLE=Various Artist - At The Cross
DYEAR=1990
DGENRE=Bluegrass
TTITLE0=Bluegrass Brethren. - Leaning on the Everlasting Arms
TTITLE1=Bluegrass Brethren. - Standing on the Promises
TTITLE2=Bluegrass Brethren. - At the Cross
TTITLE3=Bluegrass Brethren. - When the Roll is Called Up Yonder
TTITLE4=Bluegrass Brethren. - The Old Rugged Cross
TTITLE5=Bluegrass Brethren. - When We All Get to Heaven
TTITLE6=Bluegrass Brethren. - At Calvary
TTITLE7=Bluegrass Brethren. - Glory to His Name
TTITLE8=Bluegrass Brethren - Send the Light
TTITLE9=Bluegrass Brethren. - Sound the Battle Cry
TTITLE10=Bluegrass Brethren. - In the Garden
TTITLE11=Bluegrass Brethren. - Are You Washed in The Blood
EXTD=Christan Bluegrass 
EXTT0=
EXTT1=
EXTT2=
EXTT3=
EXTT4=
EXTT5=
EXTT6=
EXTT7=
EXTT8=
EXTT9=
EXTT10=
EXTT11=
PLAYORDER=
